<svg width="1446" height="310" viewBox="0 0 1446 310" fill="none" xmlns="http://www.w3.org/2000/svg">
  <rect width="1446" height="310" fill="white"/>

  <rect x="5" y="62" width="174" height="88" fill="#F1EDFF" stroke="#8B5CF6"/>
  <text x="92" y="105" text-anchor="middle" font-family="Arial, sans-serif" font-size="20" fill="#444">AvatarKit</text>
  <text x="92" y="134" text-anchor="middle" font-family="Arial, sans-serif" font-size="20" fill="#444">Server SDK</text>

  <rect x="338" y="47" width="280" height="117" fill="#F1EDFF" stroke="#8B5CF6"/>
  <text x="478" y="98" text-anchor="middle" font-family="Arial, sans-serif" font-size="22" fill="#444">Your App</text>
  <text x="478" y="132" text-anchor="middle" font-family="Arial, sans-serif" font-size="22" fill="#444">(Network Layer)</text>

  <rect x="819" y="62" width="194" height="88" fill="#F1EDFF" stroke="#8B5CF6"/>
  <text x="916" y="104" text-anchor="middle" font-family="Arial, sans-serif" font-size="20" fill="#444">AvatarKit</text>
  <text x="916" y="133" text-anchor="middle" font-family="Arial, sans-serif" font-size="20" fill="#444">Client SDK</text>

  <rect x="1225" y="63" width="206" height="87" fill="#F1EDFF" stroke="#8B5CF6"/>
  <text x="1328" y="116" text-anchor="middle" font-family="Arial, sans-serif" font-size="22" fill="#444">Avatar Rendering</text>

  <defs>
    <marker id="arrow" markerWidth="10" markerHeight="10" refX="8" refY="3" orient="auto" markerUnits="strokeWidth">
      <path d="M0,0 L0,6 L9,3 z" fill="#444"/>
    </marker>
  </defs>

  <line x1="179" y1="106" x2="338" y2="106" stroke="#444" stroke-width="2" marker-end="url(#arrow)"/>
  <rect x="227" y="90" width="118" height="31" fill="#F3F4F6"/>
  <text x="286" y="111" text-anchor="middle" font-family="Arial, sans-serif" font-size="16" fill="#444">Encoded Messages</text>

  <line x1="618" y1="96" x2="819" y2="96" stroke="#444" stroke-width="2" marker-end="url(#arrow)"/>
  <rect x="676" y="76" width="110" height="28" fill="#F3F4F6"/>
  <text x="731" y="95" text-anchor="middle" font-family="Arial, sans-serif" font-size="16" fill="#444">yieldAudioData</text>

  <line x1="618" y1="127" x2="819" y2="127" stroke="#444" stroke-width="2" marker-end="url(#arrow)"/>
  <rect x="672" y="107" width="116" height="28" fill="#F3F4F6"/>
  <text x="730" y="126" text-anchor="middle" font-family="Arial, sans-serif" font-size="16" fill="#444">yieldFramesData</text>

  <line x1="1013" y1="106" x2="1225" y2="106" stroke="#444" stroke-width="2" marker-end="url(#arrow)"/>
  <rect x="1050" y="90" width="142" height="31" fill="#F3F4F6"/>
  <text x="1121" y="111" text-anchor="middle" font-family="Arial, sans-serif" font-size="16" fill="#444">Decode &amp; Render</text>
</svg>
