<svg width="1028" height="283" viewBox="0 0 1028 283" fill="none" xmlns="http://www.w3.org/2000/svg">
  <rect width="1028" height="283" fill="white"/>

  <rect x="14" y="47" width="217" height="117" fill="#F1EDFF" stroke="#8B5CF6"/>
  <text x="122.5" y="96" text-anchor="middle" font-family="Arial, sans-serif" font-size="22" fill="#444">Audio Input</text>
  <text x="122.5" y="130" text-anchor="middle" font-family="Arial, sans-serif" font-size="22" fill="#444">(PCM16 mono)</text>

  <rect x="336" y="48" width="206" height="117" fill="#F1EDFF" stroke="#8B5CF6"/>
  <text x="439" y="116" text-anchor="middle" font-family="Arial, sans-serif" font-size="22" fill="#444">AvatarKit SDK</text>

  <rect x="765" y="19" width="227" height="102" fill="#F1EDFF" stroke="#8B5CF6"/>
  <text x="878.5" y="78" text-anchor="middle" font-family="Arial, sans-serif" font-size="22" fill="#444">AvatarKit Server</text>

  <rect x="771" y="168" width="222" height="87" fill="#F1EDFF" stroke="#8B5CF6"/>
  <text x="882" y="220" text-anchor="middle" font-family="Arial, sans-serif" font-size="22" fill="#444">Avatar Rendering</text>

  <defs>
    <marker id="arrow" markerWidth="10" markerHeight="10" refX="8" refY="3" orient="auto" markerUnits="strokeWidth">
      <path d="M0,0 L0,6 L9,3 z" fill="#444"/>
    </marker>
  </defs>

  <line x1="231" y1="106" x2="336" y2="106" stroke="#444" stroke-width="2" marker-end="url(#arrow)"/>
  <rect x="261" y="91" width="47" height="28" fill="#F3F4F6"/>
  <text x="284.5" y="110" text-anchor="middle" font-family="Arial, sans-serif" font-size="16" fill="#444">send</text>

  <path d="M542 65 C620 50, 700 40, 765 42" stroke="#444" stroke-width="2" fill="none" marker-end="url(#arrow)"/>
  <rect x="621" y="20" width="118" height="31" fill="#F3F4F6"/>
  <text x="680" y="41" text-anchor="middle" font-family="Arial, sans-serif" font-size="16" fill="#444">WebSocket</text>

  <path d="M765 95 C700 105, 620 118, 542 125" stroke="#444" stroke-width="2" fill="none" marker-end="url(#arrow)"/>
  <rect x="609" y="108" width="139" height="31" fill="#F3F4F6"/>
  <text x="678.5" y="129" text-anchor="middle" font-family="Arial, sans-serif" font-size="16" fill="#444">Motion Data</text>

  <line x1="542" y1="154" x2="771" y2="212" stroke="#444" stroke-width="2" marker-end="url(#arrow)"/>
</svg>
